<svg xmlns="http://www.w3.org/2000/svg" width="97" height="25" viewBox="0 0 97 25" fill="#000000" class="h-100">
  <path fill-rule="evenodd" clip-rule="evenodd" d="M11.0279 1.13497L10.6616 0.922787L10.2953 1.13497L0.666852 6.71241L0.302368 6.92354V7.34476V18.4996V18.9209L0.666852 19.132L10.2953 24.7094L10.6616 24.9216L11.0279 24.7094L20.6564 19.132L21.0209 18.9209V18.4996V7.34476V6.92354L20.6564 6.71241L11.0279 1.13497ZM1.76393 17.7711V8.9811L9.12386 15.7806L1.76393 17.7711ZM10.7144 16.2576L14.6966 20.8952L19.5593 18.0784V13.8654L10.7144 16.2576ZM13.9257 21.3418L9.77762 16.511L2.47002 18.4874L10.6616 23.2325L13.9257 21.3418ZM1.99347 8.00083L9.89019 15.2962L15.9617 5.77634L1.99347 8.00083ZM14.8886 5.0604L10.6616 2.61186L3.2292 6.9172L14.8886 5.0604ZM10.9319 15.2916L16.7641 6.14683L19.5593 7.76598V12.9582L10.9319 15.2916Z"></path>
  <path d="M30.8875 15.8325C31.0016 16.0864 31.1672 16.3139 31.3738 16.5005C31.5804 16.687 31.8235 16.8287 32.0877 16.9164C32.3664 17.0211 32.6621 17.0732 32.9598 17.07C33.275 17.0746 33.5872 17.0096 33.8743 16.8797C34.1615 16.7498 34.4164 16.5581 34.621 16.3184C34.8215 16.0848 34.9765 15.8158 35.0778 15.5251C35.1819 15.2204 35.2338 14.9003 35.2315 14.5783C35.2344 14.2571 35.1752 13.9384 35.0571 13.6397C34.9458 13.362 34.7823 13.1082 34.5753 12.8922C34.3659 12.6759 34.1143 12.5048 33.8361 12.3896C33.5387 12.2662 33.2195 12.204 32.8975 12.2069C32.4945 12.2046 32.0969 12.3001 31.7388 12.4852C31.3731 12.6743 31.0637 12.9565 30.8418 13.3033H30.1358L31.0245 8.57305H35.5928V9.32889H31.6059L31.0245 12.3481L31.0494 12.3772C31.2815 12.1022 31.5764 11.8871 31.9091 11.7501C32.2458 11.6022 32.6087 11.5231 32.9764 11.5175C33.4111 11.5118 33.8428 11.5908 34.2472 11.7501C34.6117 11.8976 34.9413 12.1197 35.2149 12.4021C35.4838 12.6896 35.6915 13.0287 35.8254 13.3988C35.9737 13.8059 36.0468 14.2364 36.0413 14.6696C36.0508 15.0878 35.9734 15.5034 35.8139 15.8902C35.6545 16.2769 35.4166 16.6263 35.1152 16.9164C34.8235 17.193 34.4807 17.4103 34.106 17.5559C33.7088 17.7097 33.2861 17.7872 32.8601 17.7844C32.4589 17.7888 32.06 17.7242 31.6807 17.5933C31.3337 17.4767 31.0142 17.2901 30.7421 17.0451C30.4729 16.8003 30.2578 16.5018 30.1109 16.1689C29.9501 15.7977 29.8654 15.398 29.8617 14.9936H30.6923C30.6998 15.2835 30.7662 15.569 30.8875 15.8325V15.8325Z" stroke-width="0.0739693" stroke-miterlimit="10"></path>
  <path d="M43.4421 8.57305V9.32889C43.1555 9.62376 42.815 10.0224 42.4121 10.5208C41.9751 11.0824 41.5861 11.6797 41.2493 12.3066C40.8451 13.06 40.5128 13.8497 40.2567 14.6655C39.965 15.6089 39.7961 16.586 39.7542 17.5726H38.8696C38.9149 16.8354 39.0219 16.1033 39.1894 15.3839C39.3503 14.6909 39.5813 14.016 39.8788 13.3697C40.1962 12.6804 40.5713 12.0191 41.0001 11.3929C41.4979 10.6678 42.0402 9.9743 42.6239 9.31644H37.5781V8.57305H43.4421Z" stroke-width="0.0739693" stroke-miterlimit="10"></path>
  <path d="M49.2949 8.27426C49.6742 8.27289 50.0528 8.31046 50.4245 8.38639C50.7625 8.45135 51.0851 8.57957 51.3755 8.76431C51.6457 8.94165 51.8682 9.18267 52.0234 9.46616C52.301 10.0252 52.3487 10.6707 52.1563 11.2644C52.08 11.49 51.9678 11.7017 51.824 11.8915C51.6809 12.0775 51.5084 12.2388 51.3132 12.3691C51.114 12.5007 50.8912 12.5924 50.657 12.639V12.6681C51.2102 12.7238 51.722 12.9863 52.0898 13.4032C52.4524 13.8298 52.6434 14.376 52.6256 14.9356C52.6245 15.104 52.6106 15.2719 52.584 15.4381C52.5572 15.6349 52.5055 15.8275 52.4304 16.0113C52.3445 16.2187 52.2299 16.4131 52.0898 16.5885C51.9279 16.7945 51.7259 16.9655 51.4959 17.091C51.2108 17.2507 50.9046 17.3695 50.5864 17.444C50.1604 17.5426 49.7238 17.5886 49.2866 17.5811H45.3786V8.27426H49.2949ZM49.2949 12.3525C49.6079 12.3598 49.9202 12.3191 50.221 12.232C50.4584 12.162 50.6799 12.0464 50.873 11.8915C51.0397 11.7559 51.1732 11.584 51.2634 11.389C51.3514 11.1975 51.3967 10.9892 51.3963 10.7785C51.3963 9.61013 50.6958 9.02733 49.2949 9.0301H46.2466V12.3525H49.2949ZM49.2949 16.8252C49.6098 16.8268 49.9242 16.7976 50.2334 16.738C50.5123 16.6889 50.7789 16.5859 51.0183 16.4349C51.2438 16.2861 51.4269 16.0815 51.5499 15.841C51.6902 15.5516 51.7572 15.2321 51.7451 14.9107C51.763 14.6507 51.7145 14.3903 51.604 14.1542C51.4936 13.9181 51.3249 13.714 51.1139 13.561C50.5685 13.2267 49.9333 13.0686 49.2949 13.1083H46.2466V16.846L49.2949 16.8252Z" stroke-width="0.0739693" stroke-miterlimit="10"></path>
  <path d="M55.1975 8.27422V16.8252H60.4095V17.581H54.3129V8.27422H55.1975Z" stroke-width="0.0739693" stroke-miterlimit="10"></path>
  <path d="M61.3494 11.102C61.5247 10.5386 61.8067 10.0141 62.18 9.55712C62.553 9.10346 63.0226 8.73882 63.5546 8.4898C64.1558 8.20742 64.8133 8.0654 65.4774 8.07451C66.1389 8.06491 66.7939 8.20698 67.3919 8.4898C67.922 8.74005 68.39 9.10455 68.7624 9.55712C69.1375 10.013 69.4196 10.5378 69.593 11.102C69.9586 12.2999 69.9586 13.5796 69.593 14.7774C69.4214 15.3399 69.139 15.8623 68.7624 16.314C68.3887 16.7642 67.9209 17.1271 67.3919 17.3772C66.7939 17.66 66.1389 17.8021 65.4774 17.7925C64.8133 17.8016 64.1558 17.6596 63.5546 17.3772C63.0238 17.1282 62.5544 16.7652 62.18 16.314C61.8051 15.8612 61.5229 15.3391 61.3494 14.7774C60.9838 13.5796 60.9838 12.2999 61.3494 11.102V11.102ZM62.18 14.4244C62.3079 14.8975 62.5203 15.3435 62.8071 15.7409C63.0927 16.1312 63.4652 16.4496 63.8951 16.6712C64.3878 16.919 64.9345 17.0404 65.4857 17.0242C66.0344 17.0405 66.5784 16.9192 67.068 16.6712C67.496 16.4485 67.8669 16.1302 68.1519 15.7409C68.4331 15.343 68.6387 14.8967 68.7583 14.4244C69.0296 13.4462 69.0296 12.4125 68.7583 11.4343C68.6336 10.9621 68.4223 10.5171 68.1353 10.1219C67.8503 9.73267 67.4794 9.41435 67.0514 9.19166C66.5618 8.94365 66.0178 8.82229 65.4691 8.83865C64.9178 8.82248 64.3712 8.9438 63.8785 9.19166C63.4486 9.41319 63.0761 9.73167 62.7904 10.1219C62.5038 10.5178 62.2913 10.9625 62.1633 11.4343C61.8976 12.4133 61.8976 13.4454 62.1633 14.4244H62.18Z" stroke-width="0.0739693" stroke-miterlimit="10"></path>
  <path d="M77.9085 10.1305C77.7352 9.86271 77.5142 9.62903 77.2564 9.44111C77.0058 9.25053 76.7251 9.10315 76.4258 9.00505C76.1132 8.90464 75.7866 8.85419 75.4582 8.85554C74.9069 8.83936 74.3603 8.96068 73.8676 9.20854C73.4377 9.43007 73.0652 9.74855 72.7795 10.1388C72.4928 10.5347 72.2804 10.9794 72.1524 11.4512C71.8811 12.4294 71.8811 13.463 72.1524 14.4413C72.2803 14.9144 72.4928 15.3604 72.7795 15.7578C73.0652 16.1481 73.4377 16.4665 73.8676 16.6881C74.3603 16.9359 74.9069 17.0572 75.4582 17.0411C75.861 17.047 76.2604 16.9662 76.6293 16.8043C76.9699 16.6561 77.2765 16.4399 77.5305 16.1689C77.7857 15.8898 77.9921 15.5697 78.141 15.2221C78.3017 14.8513 78.4026 14.4574 78.44 14.0551H79.3288C79.2753 14.5919 79.1351 15.1164 78.9135 15.6083C78.7212 16.046 78.4479 16.4434 78.1078 16.7794C77.7717 17.0967 77.3747 17.3426 76.9408 17.502C76.4645 17.6813 75.9588 17.7701 75.4499 17.7637C74.7858 17.7728 74.1282 17.6308 73.5271 17.3484C72.9963 17.0994 72.5269 16.7364 72.1524 16.2852C71.7775 15.8324 71.4953 15.3103 71.3218 14.7486C70.9563 13.5508 70.9563 12.2711 71.3218 11.0732C71.4972 10.5098 71.7792 9.98533 72.1524 9.52832C72.5255 9.07466 72.9951 8.71002 73.5271 8.46101C74.1282 8.17862 74.7858 8.0366 75.4499 8.04571C75.8891 8.04626 76.3258 8.11204 76.7456 8.2409C77.1578 8.36866 77.5453 8.56524 77.8918 8.82232C78.2366 9.07807 78.5286 9.39821 78.7515 9.76504C78.9832 10.1598 79.125 10.6008 79.1668 11.0566H78.2822C78.2106 10.7291 78.0842 10.416 77.9085 10.1305V10.1305Z" stroke-width="0.0739693" stroke-miterlimit="10"></path>
  <path d="M81.8119 8.27422V13.2786L87.2108 8.29498H88.4069L84.2539 12.1406L88.6145 17.581H87.4683L83.5853 12.7304L81.7995 14.3916V17.581H80.9274V8.27422H81.8119Z" stroke-width="0.0739693" stroke-miterlimit="10"></path>
  <path d="M90.2692 15.717C90.4108 16.0308 90.6329 16.3016 90.9129 16.5019C91.2077 16.7033 91.5394 16.8444 91.8889 16.9172C92.2832 17.0025 92.6857 17.0443 93.0891 17.0418C93.3567 17.0392 93.623 17.0044 93.8823 16.9379C94.1649 16.8689 94.4352 16.7568 94.6838 16.6057C94.9283 16.4554 95.139 16.256 95.3026 16.0201C95.4732 15.7634 95.5602 15.4603 95.5518 15.1522C95.5579 14.9147 95.4974 14.6802 95.3774 14.4752C95.2597 14.285 95.1042 14.1211 94.9206 13.9935C94.7293 13.8601 94.5212 13.7526 94.3018 13.6737C94.0839 13.5944 93.8622 13.5264 93.6373 13.4702L91.5608 12.9635C91.2923 12.8939 91.0287 12.8065 90.7717 12.7019C90.5244 12.6048 90.2966 12.4642 90.0989 12.2866C89.9037 12.1084 89.7468 11.8922 89.638 11.6512C89.5104 11.3596 89.4494 11.0432 89.4594 10.7251C89.4672 10.4545 89.5119 10.1862 89.5923 9.92772C89.6826 9.59387 89.8489 9.28543 90.0782 9.02652C90.3551 8.7393 90.6889 8.51299 91.0583 8.36204C91.5672 8.1575 92.1132 8.06132 92.6613 8.07964C93.1066 8.07806 93.5498 8.13959 93.9778 8.26237C94.3755 8.3719 94.748 8.55812 95.0742 8.81056C95.4038 9.06494 95.6688 9.3934 95.8478 9.76933C96.0267 10.1453 96.1145 10.5581 96.1041 10.9743H95.2113C95.2035 10.6485 95.1211 10.3288 94.9704 10.0398C94.8325 9.78127 94.6414 9.55482 94.4097 9.37537C94.1734 9.18891 93.9044 9.04808 93.6165 8.96007C93.3095 8.86753 92.9903 8.82134 92.6696 8.82302C92.3747 8.82216 92.0806 8.85561 91.7934 8.92269C91.5278 8.97758 91.2753 9.08335 91.05 9.23417C90.8344 9.37713 90.6575 9.57115 90.535 9.79897C90.3955 10.0694 90.3283 10.3712 90.3398 10.6753C90.3358 10.869 90.3726 11.0614 90.4478 11.2401C90.5193 11.3989 90.6241 11.5405 90.7551 11.6554C90.89 11.7687 91.0412 11.8611 91.2036 11.9295C91.3802 12.0004 91.5621 12.0574 91.7477 12.0997L94.0152 12.6604C94.3332 12.7425 94.6442 12.8494 94.9455 12.9802C95.2236 13.0973 95.4826 13.2555 95.7138 13.4494C95.9352 13.6361 96.1137 13.8685 96.237 14.1305C96.3694 14.4399 96.4331 14.7743 96.4239 15.1106C96.4226 15.2497 96.4115 15.3885 96.3907 15.5259C96.3656 15.7177 96.3139 15.905 96.237 16.0824C96.145 16.2932 96.0264 16.4914 95.884 16.6722C95.7102 16.8905 95.4976 17.0749 95.2569 17.2162C94.9497 17.3938 94.6181 17.5253 94.2727 17.6066C93.3052 17.8192 92.3017 17.805 91.3407 17.565C90.9068 17.4563 90.4997 17.2598 90.1446 16.9878C89.8174 16.722 89.5606 16.3797 89.3971 15.9911C89.2102 15.5233 89.1321 15.0192 89.1687 14.5168H90.0574C90.0301 14.9281 90.1028 15.3399 90.2692 15.717Z" stroke-width="0.0739693" stroke-miterlimit="10"></path>
</svg>