<?xml version="1.0" encoding="UTF-8"?>
<svg id="Layer_1" data-name="Layer 1" xmlns="http://www.w3.org/2000/svg" viewBox="0 0 185.36 185.35">
  <defs>
    <style>
      .cls-1 {
        fill: #ffa530;
        stroke-width: 0px;
      }
    </style>
  </defs>
  <path class="cls-1" d="M35.81,95.22L153.21,22.49c-.07-.06-.14-.12-.2-.18-11.24-9.64-27.52-10.69-40.05-2.79L48.63,60.07c-12.64,7.97-17.54,22.26-12.82,35.15ZM31.08,113.59l-.03.02-.69-1.09-2.79-4.42-.72-1.14.03-.02c-11.78-20.01-5.48-45.25,14.73-57.99L114.96,2.73C91.34-3.12,65.47.29,43.27,14.28-.03,41.57-13,98.79,14.28,142.09c3.3,5.23,7.03,10.02,11.13,14.34l37.7-23.76c-12.58-1.23-24.5-7.87-32.03-19.08Z"/>
  <path class="cls-1" d="M171.07,43.26c-2.52-4.01-5.31-7.75-8.31-11.23l-40.83,25.29c12.44,1.01,24.32,7.31,32.03,18.08l.07-.04,1.38,2.19,2.12,3.37,1.38,2.19-.07.04c11.06,20.07,4.67,45.61-14.97,57.99l-67.75,42.7c22.02,4,45.54.1,65.97-12.78,43.3-27.29,56.27-84.51,28.98-127.81Z"/>
  <path class="cls-1" d="M149.32,93.87l-113.83,71.75c.65.51,1.3,1.01,1.96,1.5,11.25,8.34,26.48,8.89,38.33,1.43l61.09-38.51c12.33-7.77,17.2-22.98,12.45-36.16Z"/>
</svg>