<?xml version="1.0" encoding="UTF-8"?>
<svg id="Layer_1" data-name="Layer 1" xmlns="http://www.w3.org/2000/svg" viewBox="0 0 944.91 144.41">
  <defs>
    <style>
      .cls-1 {
        fill: #ffa530;
        stroke-width: 0px;
      }
    </style>
  </defs>
  <path class="cls-1" d="M8.01,84.19c2.31,1.1,5.04,2.29,8.18,3.55,3.14,1.27,6.46,2.45,9.96,3.55,3.5,1.1,7.08,2.02,10.74,2.77,3.66.74,7.2,1.12,10.62,1.12,3.8,0,6.98-.32,9.54-.95,2.56-.63,4.64-1.51,6.24-2.64,1.6-1.13,2.74-2.48,3.43-4.05.69-1.57,1.03-3.32,1.03-5.25,0-2.15-.59-3.97-1.78-5.45-1.19-1.49-2.92-2.81-5.2-3.96-2.29-1.16-5.1-2.23-8.43-3.22-3.33-.99-7.15-2.09-11.44-3.3-2.09-.55-4.48-1.2-7.15-1.94-2.67-.74-5.38-1.65-8.14-2.73-2.75-1.07-5.44-2.37-8.06-3.88-2.62-1.51-4.96-3.29-7.02-5.33-2.07-2.04-3.72-4.39-4.96-7.06-1.24-2.67-1.86-5.71-1.86-9.13,0-5.62.91-10.67,2.73-15.16,1.82-4.49,4.61-8.3,8.39-11.44,3.77-3.14,8.56-5.54,14.38-7.19,5.81-1.65,12.74-2.48,20.78-2.48,4.08,0,8.01.3,11.81.91,3.8.61,7.45,1.4,10.95,2.4,3.5.99,6.84,2.11,10.04,3.35,3.19,1.24,6.25,2.47,9.17,3.68l-7.02,21.73c-1.05-.5-2.41-1.07-4.09-1.73-1.68-.66-3.57-1.33-5.66-2.02-2.09-.69-4.32-1.38-6.69-2.07-2.37-.69-4.76-1.29-7.19-1.82-2.42-.52-4.81-.95-7.15-1.28-2.34-.33-4.53-.5-6.57-.5-3.53,0-6.43.3-8.72.91-2.29.61-4.09,1.43-5.41,2.48-1.32,1.05-2.24,2.23-2.77,3.55-.52,1.32-.78,2.67-.78,4.05,0,1.93.62,3.59,1.86,5s2.93,2.62,5.08,3.63c2.15,1.02,4.68,1.89,7.6,2.6,2.92.72,6.09,1.38,9.5,1.98,5.84,1.43,11.24,3,16.19,4.71,4.96,1.71,9.22,3.91,12.81,6.61,3.58,2.7,6.37,6.06,8.39,10.08,2.01,4.02,3.02,9,3.02,14.95s-1.24,10.67-3.72,15c-2.48,4.32-5.88,7.96-10.2,10.91-4.32,2.95-9.45,5.16-15.37,6.65-5.92,1.49-12.32,2.23-19.21,2.23-5.18,0-10.02-.34-14.54-1.03-4.52-.69-8.69-1.57-12.52-2.64-3.83-1.07-7.31-2.27-10.45-3.59-3.14-1.32-5.92-2.62-8.34-3.88l8.01-22.64Z"/>
  <path class="cls-1" d="M248.56,115.17h-25.61v-45.6c0-7.16-1.19-12.42-3.55-15.78-2.37-3.36-5.89-5.04-10.57-5.04-2.75,0-5.26.47-7.52,1.4-2.26.94-4.19,2.29-5.78,4.05-1.6,1.76-2.85,3.9-3.76,6.4-.91,2.51-1.39,5.33-1.45,8.47v46.1h-25.69v-45.6c0-7.16-1.19-12.42-3.55-15.78-2.37-3.36-5.89-5.04-10.57-5.04-2.81,0-5.36.48-7.64,1.45-2.29.96-4.24,2.38-5.87,4.25-1.63,1.87-2.86,4.14-3.72,6.82-.85,2.67-1.28,5.69-1.28,9.05v44.86h-25.53V29.49h20.57l1.49,5.95c3.19-2.37,6.98-4.41,11.36-6.11,4.38-1.71,9.24-2.56,14.58-2.56,5.67,0,10.74.98,15.2,2.93,4.46,1.96,8.26,4.72,11.4,8.3,1.71-1.49,3.64-2.92,5.78-4.3,2.15-1.38,4.5-2.57,7.06-3.59,2.56-1.02,5.34-1.83,8.34-2.44,3-.61,6.21-.91,9.62-.91,5.95,0,11.21.96,15.78,2.89,4.57,1.93,8.41,4.71,11.52,8.34,3.11,3.64,5.45,8.06,7.02,13.26,1.57,5.21,2.35,11.08,2.35,17.64v46.26Z"/>
  <path class="cls-1" d="M319.74,107.32c-2.2,1.6-4.6,3.03-7.19,4.3-2.59,1.27-5.26,2.34-8.01,3.22-2.75.88-5.58,1.54-8.47,1.98-2.89.44-5.74.63-8.55.58-4.08-.06-7.93-.65-11.57-1.78-3.64-1.13-6.83-2.9-9.58-5.33-2.75-2.42-4.94-5.52-6.57-9.29-1.63-3.77-2.44-8.33-2.44-13.67,0-4.74,1.1-8.69,3.3-11.86,2.2-3.17,5.26-5.69,9.17-7.56,3.91-1.87,8.52-3.19,13.84-3.97,5.31-.77,11.08-1.16,17.31-1.16,2.42,0,4.97.03,7.64.08,2.67.05,5.33.11,7.97.17v-5.78c-.11-2.81-1.6-5.12-4.46-6.94-2.86-1.82-6.72-2.73-11.57-2.73-2.09,0-4.05.23-5.87.7-1.82.47-3.4,1.07-4.75,1.82-1.35.74-2.42,1.62-3.22,2.64-.8,1.02-1.2,2.05-1.2,3.1l-25.78.08c.22-4.85,1.33-9.1,3.35-12.76,2.01-3.66,4.78-6.71,8.3-9.13,3.52-2.42,7.7-4.24,12.52-5.45,4.82-1.21,10.15-1.82,15.99-1.82,6.44,0,12.27.65,17.47,1.94,5.2,1.29,9.65,3.17,13.34,5.62,3.69,2.45,6.53,5.48,8.51,9.09,1.98,3.61,2.97,7.72,2.97,12.35v59.4h-20.65l-1.82-7.85ZM297.1,97.4c1.98,0,3.98-.22,5.99-.66,2.01-.44,3.9-1.05,5.66-1.82,1.76-.77,3.33-1.71,4.71-2.81,1.38-1.1,2.4-2.29,3.06-3.55v-8.01c-1.65-.05-3.43-.11-5.33-.17-1.9-.05-4.17-.08-6.82-.08-2.86,0-5.56.12-8.1.37-2.53.25-4.74.68-6.61,1.28-1.87.61-3.35,1.43-4.42,2.48-1.07,1.05-1.61,2.4-1.61,4.05s.36,3.06,1.07,4.21c.71,1.16,1.68,2.08,2.89,2.77,1.21.69,2.63,1.19,4.25,1.49,1.62.3,3.37.45,5.25.45Z"/>
  <path class="cls-1" d="M405.64,51.72l-2.74.08c-7.05,0-12.54,1.96-16.48,5.87-3.94,3.91-5.91,9.8-5.91,17.68v39.82h-25.45V29.49h20.49l1.98,8.1c2.75-2.31,6.1-4.24,10.04-5.78,3.94-1.54,8.58-2.31,13.92-2.31h12.14l-8,22.22Z"/>
  <path class="cls-1" d="M426.33,26.93l7.77-21.07,18.34-.17v23.79h24.87v21.89h-24.87v30.07c0,2.64.32,4.83.95,6.57.63,1.74,1.49,3.11,2.56,4.13,1.07,1.02,2.35,1.72,3.84,2.11,1.49.39,3.08.58,4.79.58h14.29l-.17,20.9h-16.61c-4.79,0-9.32-.43-13.59-1.28-4.27-.85-8-2.51-11.19-4.96-3.19-2.45-5.71-5.89-7.56-10.33-1.85-4.43-2.77-10.26-2.77-17.47v-30.32h-9.63"/>
  <path class="cls-1" d="M489.99,84.19c2.31,1.1,5.04,2.29,8.18,3.55,3.14,1.27,6.46,2.45,9.96,3.55,3.5,1.1,7.08,2.02,10.74,2.77,3.66.74,7.2,1.12,10.62,1.12,3.8,0,6.98-.32,9.54-.95,2.56-.63,4.64-1.51,6.24-2.64,1.6-1.13,2.74-2.48,3.43-4.05.69-1.57,1.03-3.32,1.03-5.25,0-2.15-.59-3.97-1.78-5.45-1.19-1.49-2.92-2.81-5.2-3.96-2.29-1.16-5.1-2.23-8.43-3.22-3.33-.99-7.15-2.09-11.44-3.3-2.09-.55-4.48-1.2-7.15-1.94-2.67-.74-5.38-1.65-8.14-2.73-2.75-1.07-5.44-2.37-8.06-3.88-2.62-1.51-4.96-3.29-7.02-5.33-2.07-2.04-3.72-4.39-4.96-7.06-1.24-2.67-1.86-5.71-1.86-9.13,0-5.62.91-10.67,2.73-15.16,1.82-4.49,4.61-8.3,8.39-11.44,3.77-3.14,8.56-5.54,14.38-7.19,5.81-1.65,12.74-2.48,20.78-2.48,4.08,0,8.01.3,11.81.91,3.8.61,7.45,1.4,10.95,2.4,3.5.99,6.84,2.11,10.04,3.35,3.19,1.24,6.25,2.47,9.17,3.68l-7.02,21.73c-1.05-.5-2.41-1.07-4.09-1.73-1.68-.66-3.57-1.33-5.66-2.02-2.09-.69-4.32-1.38-6.69-2.07-2.37-.69-4.76-1.29-7.19-1.82-2.42-.52-4.81-.95-7.15-1.28-2.34-.33-4.53-.5-6.57-.5-3.53,0-6.43.3-8.72.91-2.29.61-4.09,1.43-5.41,2.48-1.32,1.05-2.24,2.23-2.77,3.55-.52,1.32-.78,2.67-.78,4.05,0,1.93.62,3.59,1.86,5s2.93,2.62,5.08,3.63c2.15,1.02,4.68,1.89,7.6,2.6,2.92.72,6.09,1.38,9.5,1.98,5.84,1.43,11.24,3,16.19,4.71,4.96,1.71,9.22,3.91,12.81,6.61,3.58,2.7,6.37,6.06,8.39,10.08,2.01,4.02,3.02,9,3.02,14.95s-1.24,10.67-3.72,15c-2.48,4.32-5.88,7.96-10.2,10.91-4.32,2.95-9.45,5.16-15.37,6.65-5.92,1.49-12.32,2.23-19.21,2.23-5.18,0-10.02-.34-14.54-1.03-4.52-.69-8.69-1.57-12.52-2.64-3.83-1.07-7.31-2.27-10.45-3.59"/>
  <path class="cls-1" d="M683.94,72.29c0,6.28-1.05,12.19-3.14,17.72-2.09,5.54-5.1,10.37-9.01,14.5-3.91,4.13-8.67,7.39-14.29,9.79-5.62,2.4-11.95,3.59-19,3.59-5.18,0-9.79-.7-13.84-2.11-4.05-1.4-7.61-3.23-10.7-5.49v34.12h-25.53V29.49h20.57l1.65,7.27c1.6-1.32,3.37-2.59,5.33-3.8,1.96-1.21,4.09-2.27,6.4-3.18,2.31-.91,4.78-1.64,7.39-2.19,2.62-.55,5.38-.83,8.3-.83,6.99,0,13.31,1.2,18.96,3.59,5.64,2.4,10.46,5.65,14.46,9.75,3.99,4.1,7.06,8.92,9.21,14.46s3.22,11.44,3.22,17.72ZM658.33,72.37c0-3.58-.59-6.83-1.78-9.75-1.18-2.92-2.81-5.42-4.87-7.52-2.07-2.09-4.49-3.7-7.27-4.83-2.78-1.13-5.74-1.69-8.88-1.69s-6.17.57-8.92,1.69c-2.75,1.13-5.16,2.73-7.23,4.79s-3.69,4.57-4.87,7.52c-1.19,2.95-1.78,6.21-1.78,9.79s.61,6.73,1.82,9.62c1.21,2.89,2.85,5.37,4.92,7.44s4.49,3.66,7.27,4.79c2.78,1.13,5.74,1.69,8.88,1.69s6.18-.56,8.96-1.69c2.78-1.13,5.19-2.71,7.23-4.75,2.04-2.04,3.63-4.5,4.79-7.39,1.16-2.89,1.74-6.13,1.74-9.71Z"/>
  <path class="cls-1" d="M717.86,83.03c1.87,4.13,4.67,7.38,8.39,9.75,3.72,2.37,7.83,3.55,12.35,3.55,2.64,0,4.93-.17,6.86-.5,1.93-.33,3.63-.79,5.12-1.36s2.84-1.27,4.05-2.07c1.21-.8,2.42-1.67,3.64-2.6l13.88,15.2c-1.49,1.43-3.35,2.92-5.58,4.46s-4.78,2.95-7.64,4.21c-2.86,1.27-6.02,2.31-9.46,3.14-3.44.83-7.15,1.24-11.11,1.24-6.94,0-13.3-1.21-19.08-3.63s-10.77-5.71-14.95-9.87c-4.19-4.16-7.44-9-9.75-14.54-2.31-5.54-3.47-11.41-3.47-17.64s1.16-12.1,3.47-17.64c2.31-5.54,5.55-10.38,9.71-14.54s9.14-7.45,14.95-9.87c5.81-2.42,12.21-3.64,19.21-3.64,6.11,0,11.63.73,16.56,2.19,4.93,1.46,9.13,3.51,12.6,6.16s6.14,5.81,8.01,9.5c1.87,3.69,2.81,7.77,2.81,12.23,0,3.53-.5,6.89-1.49,10.08-.99,3.2-2.69,5.99-5.08,8.39s-5.58,4.3-9.54,5.7-8.92,2.11-14.87,2.11h-29.58ZM739.09,47.75c-2.37,0-4.64.34-6.82,1.03s-4.2,1.68-6.07,2.97c-1.87,1.29-3.55,2.84-5.04,4.63s-2.7,3.79-3.63,5.99h25.78c3.36,0,6-.58,7.93-1.74,1.93-1.16,2.89-2.73,2.89-4.71,0-.94-.3-1.89-.91-2.85-.61-.96-1.53-1.84-2.77-2.64-1.24-.8-2.81-1.45-4.71-1.94-1.9-.5-4.12-.74-6.65-.74Z"/>
  <path class="cls-1" d="M864.14,105.66c-4.35,4.08-9.32,7.15-14.91,9.21-5.59,2.07-11.64,3.07-18.13,3.02-7-.06-13.41-1.28-19.25-3.68-5.84-2.4-10.85-5.66-15.04-9.79-4.19-4.13-7.45-8.95-9.79-14.46-2.34-5.51-3.51-11.37-3.51-17.6s1.16-12.1,3.47-17.64,5.58-10.38,9.79-14.54c4.21-4.16,9.22-7.45,15.04-9.87,5.81-2.42,12.24-3.64,19.29-3.64,6.39,0,12.36,1.02,17.93,3.06,5.56,2.04,10.52,5.04,14.87,9l-15.37,16.19c-1.98-1.98-4.46-3.51-7.44-4.58-2.97-1.07-6.25-1.61-9.83-1.61-2.97,0-5.81.54-8.51,1.61-2.7,1.07-5.07,2.63-7.1,4.67-2.04,2.04-3.65,4.5-4.83,7.39-1.19,2.89-1.78,6.18-1.78,9.87s.61,7,1.82,9.91c1.21,2.92,2.82,5.38,4.83,7.39,2.01,2.01,4.36,3.55,7.06,4.63,2.7,1.07,5.54,1.61,8.51,1.61,3.85,0,7.23-.54,10.12-1.61,2.89-1.07,5.33-2.66,7.31-4.75l15.45,16.19Z"/>
  <path class="cls-1" d="M874.52,88.32c2.97,1.71,5.74,3.13,8.3,4.25,2.56,1.13,4.97,2.02,7.23,2.69,2.26.66,4.38,1.13,6.36,1.4,1.98.28,3.88.41,5.7.41,4.85,0,8.51-.63,10.99-1.9,2.48-1.27,3.72-3.06,3.72-5.37,0-1.38-.43-2.49-1.28-3.35-.85-.85-2.15-1.6-3.88-2.23-1.73-.63-3.94-1.22-6.61-1.78-2.67-.55-5.85-1.24-9.54-2.07-2.53-.5-5.33-1.2-8.38-2.11-3.06-.91-5.92-2.27-8.59-4.09-2.67-1.82-4.92-4.27-6.73-7.35-1.82-3.08-2.73-7.08-2.73-11.98,0-4.35.77-8.28,2.31-11.77,1.54-3.5,3.85-6.44,6.94-8.84,3.08-2.4,6.93-4.24,11.52-5.54,4.6-1.29,9.96-1.94,16.07-1.94,6.72,0,13,.62,18.84,1.86s11.59,3.21,17.27,5.91l-6.61,19.91c-4.46-1.82-9.16-3.43-14.09-4.83-4.93-1.41-9.82-2.11-14.66-2.11-2.15,0-3.95.21-5.41.62-1.46.41-2.66.95-3.59,1.61-.94.66-1.6,1.42-1.98,2.27-.39.85-.58,1.72-.58,2.6,0,2.09,1.25,3.66,3.76,4.71,2.5,1.05,6.65,1.96,12.43,2.73,4.52.83,8.81,1.75,12.89,2.77,4.08,1.02,7.64,2.46,10.7,4.34,3.06,1.87,5.49,4.31,7.31,7.31,1.82,3,2.73,6.87,2.73,11.61s-1.02,8.96-3.06,12.68c-2.04,3.72-4.85,6.86-8.43,9.42-3.58,2.56-7.81,4.52-12.68,5.87-4.87,1.35-10.18,2.02-15.9,2.02-3.58,0-6.94-.12-10.08-.37s-6.2-.69-9.17-1.32c-2.97-.63-5.94-1.5-8.88-2.6-2.95-1.1-6.04-2.53-9.29-4.3l7.11-21.15Z"/>
</svg>